<svg width="1080" height="1150" viewBox="0 0 1080 1150" fill="none" xmlns="http://www.w3.org/2000/svg">
<path d="M4.5 1135.6V4.5H1077.71C1078.02 4.96285 1078.39 5.50684 1078.82 6.1305C1080.42 8.4972 1082.8 12.0112 1085.85 16.5922C1091.97 25.7543 1100.84 39.184 1111.82 56.2397C1133.78 90.3522 1164.19 138.963 1197.98 196.938C1265.59 312.925 1346.63 466.241 1400.62 615.869C1427.62 690.681 1447.81 764.442 1456.21 832.067C1464.62 899.733 1461.18 960.924 1441.27 1010.82C1421.43 1060.54 1385.13 1099.33 1327.08 1122.27C1268.86 1145.28 1188.52 1152.43 1080.67 1138.13C647.418 1080.71 377.052 1080.68 214.869 1095.07C133.772 1102.26 79.6956 1113.06 45.8119 1122.1C28.8689 1126.63 16.9711 1130.71 9.26583 1133.69C7.44753 1134.39 5.86265 1135.03 4.5 1135.6Z" fill="url(#paint0_linear_115_302)" stroke="url(#paint1_linear_115_302)" stroke-width="9"/>
<defs>
<linearGradient id="paint0_linear_115_302" x1="446" y1="604.5" x2="262.5" y2="3.17159e-06" gradientUnits="userSpaceOnUse">
<stop stop-color="#2C3E6C"/>
<stop offset="0.969955" stop-color="#5679D2"/>
</linearGradient>
<linearGradient id="paint1_linear_115_302" x1="733" y1="623" x2="732.5" y2="1150" gradientUnits="userSpaceOnUse">
<stop stop-color="#5274C9"/>
<stop offset="1" stop-color="#EC7437"/>
</linearGradient>
</defs>
</svg>
