<svg width="1080" height="223" viewBox="0 0 1080 223" fill="none" xmlns="http://www.w3.org/2000/svg">
<path d="M415.303 223.616C415.303 166.492 384.734 111.708 330.32 71.3161C275.906 30.9237 202.105 8.23145 125.152 8.23145C48.1986 8.23144 -25.6026 30.9237 -80.0166 71.316C-134.431 111.708 -165 166.492 -165 223.616L125.152 223.616H415.303Z" fill="url(#paint0_linear_115_287)"/>
<path d="M796.684 223.616C796.684 166.492 764.886 111.708 708.286 71.3161C651.685 30.9237 574.918 8.23145 494.872 8.23145C414.826 8.23144 338.059 30.9237 281.458 71.316C224.857 111.708 193.059 166.492 193.059 223.616L494.872 223.616H796.684Z" fill="#79A10E"/>
<path d="M1016.18 215.384C1016.18 158.261 994.937 103.477 957.118 63.0846C919.298 22.6922 868.004 4.3127e-06 814.519 0C761.034 -4.3127e-06 709.739 22.6922 671.92 63.0846C634.1 103.477 612.853 158.261 612.853 215.384L814.519 215.384H1016.18Z" fill="#AFD75D"/>
<path d="M1164.35 215.384C1164.35 158.261 1143.1 103.477 1105.28 63.0846C1067.46 22.6922 1016.17 4.3127e-06 962.681 0C909.196 -4.3127e-06 857.902 22.6922 820.082 63.0846C782.262 103.477 761.016 158.261 761.016 215.384L962.681 215.384H1164.35Z" fill="#AFD75D"/>
<path d="M1387.96 215.384C1387.96 158.261 1366.72 103.477 1328.9 63.0846C1291.08 22.6922 1239.78 4.3127e-06 1186.3 0C1132.81 -4.3127e-06 1081.52 22.6922 1043.7 63.0846C1005.88 103.477 984.631 158.261 984.631 215.384L1186.3 215.384H1387.96Z" fill="url(#paint1_linear_115_287)"/>
<path d="M502.286 223.616C438.693 223.616 187.648 223.616 187.648 223.616C187.648 223.616 187.648 223.616 -145.794 223.616C-145.794 135.157 56.4784 214.088 93.4871 154.604C-29.1497 298.549 544.123 -25.1346 502.286 223.616Z" fill="#AFD75D"/>
<path d="M794.496 223.616C730.903 223.616 479.857 223.616 479.857 223.616C479.857 223.616 479.857 223.616 146.416 223.616C146.416 135.157 348.688 214.088 385.696 154.604C263.06 298.549 836.332 -25.1346 794.496 223.616Z" fill="#AFD75D"/>
<path d="M1119.63 223.616C1056.04 223.616 804.991 223.616 804.991 223.616C804.991 223.616 804.991 223.616 471.55 223.616C471.55 135.157 673.822 214.088 710.831 154.604C588.194 298.549 1161.47 -25.1346 1119.63 223.616Z" fill="#79A10E"/>
<path d="M1339.13 223.616C1275.54 223.616 1024.49 223.616 1024.49 223.616C1024.49 223.616 1024.49 223.616 691.05 223.616C691.05 135.157 893.322 214.088 930.331 154.604C807.694 298.549 1380.97 -25.1346 1339.13 223.616Z" fill="#79A10E"/>
<defs>
<linearGradient id="paint0_linear_115_287" x1="125.152" y1="8.23145" x2="135.674" y2="198.17" gradientUnits="userSpaceOnUse">
<stop stop-color="#79A10E"/>
<stop offset="1" stop-color="#2C3B05"/>
</linearGradient>
<linearGradient id="paint1_linear_115_287" x1="1186.3" y1="41.1562" x2="1186.3" y2="430.769" gradientUnits="userSpaceOnUse">
<stop stop-color="#79A10E"/>
<stop offset="1" stop-color="#2C3B05"/>
</linearGradient>
</defs>
</svg>
