<svg width="240" height="240" viewBox="0 0 240 240" fill="none" xmlns="http://www.w3.org/2000/svg">
<path d="M106.26 139.5L151.5 94.2598L227.88 170.64L190.2 178.2L182.64 215.94L106.26 139.5Z" fill="#C2E8FF"/>
<path d="M151.5 98.46L222 168.84L192 174.84L188.1 175.62L187.32 179.52L181.32 209.52L110.46 139.5L151.5 98.46ZM151.5 90L102 139.5L184.5 222L192.78 180.78L234 172.5L151.5 90Z" fill="#7496C4"/>
<path d="M49.8001 178.2L12.1201 170.64L88.5001 94.2598L133.74 139.5L57.3601 215.94L49.8001 178.2Z" fill="#C2E8FF"/>
<path d="M88.5 98.46L129.54 139.5L59.16 210L53.16 180L52.38 176.1L48.48 175.32L18.48 169.32L88.5 98.46ZM88.5 90L6 172.5L47.28 180.78L55.5 222L138 139.5L88.5 90Z" fill="#7496C4"/>
<path d="M120 183C115.085 182.984 110.25 181.762 105.918 179.439C101.587 177.116 97.8928 173.765 95.1602 169.68C94.6793 168.941 94.0211 168.334 93.2455 167.915C92.47 167.496 91.6018 167.278 90.7202 167.28H90.4202H89.6402C87.6654 167.681 85.6553 167.882 83.6402 167.88C79.2164 167.837 74.857 166.816 70.8743 164.89C66.8915 162.964 63.3839 160.181 60.6029 156.741C57.8218 153.3 55.8361 149.287 54.7879 144.989C53.7398 140.691 53.6552 136.215 54.5402 131.88C54.7489 130.846 54.6432 129.774 54.2369 128.801C53.8305 127.828 53.142 126.998 52.2602 126.42C48.2014 123.671 44.8779 119.97 42.5806 115.64C40.2832 111.309 39.082 106.482 39.082 101.58C39.082 96.6781 40.2832 91.8508 42.5806 87.5205C44.8779 83.1902 48.2014 79.4888 52.2602 76.7401C53.0324 76.2254 53.6553 75.5162 54.0661 74.684C54.4769 73.8519 54.6611 72.9262 54.6002 72.0001C53.7152 67.6656 53.7998 63.189 54.8479 58.891C55.8961 54.593 57.8818 50.58 60.6628 47.1395C63.4439 43.699 66.9515 40.9162 70.9343 38.9904C74.917 37.0646 79.2765 36.0434 83.7002 36.0001C85.7151 36.0005 87.7251 36.2015 89.7002 36.6001H90.7802C91.6618 36.6026 92.53 36.3842 93.3055 35.965C94.0811 35.5458 94.7393 34.939 95.2202 34.2001C97.9689 30.1413 101.67 26.8178 106.001 24.5205C110.331 22.2232 115.158 21.022 120.06 21.022C124.962 21.022 129.789 22.2232 134.12 24.5205C138.45 26.8178 142.152 30.1413 144.9 34.2001C145.381 34.939 146.039 35.5458 146.815 35.965C147.59 36.3842 148.459 36.6026 149.34 36.6001H149.64H150.42C152.395 36.1991 154.405 35.9981 156.42 36.0001C160.844 36.0434 165.203 37.0646 169.186 38.9904C173.169 40.9162 176.676 43.699 179.458 47.1395C182.239 50.58 184.224 54.593 185.272 58.891C186.321 63.189 186.405 67.6656 185.52 72.0001C185.312 73.0338 185.417 74.1064 185.824 75.0795C186.23 76.0526 186.918 76.8818 187.8 77.4601C191.859 80.2088 195.182 83.9102 197.48 88.2405C199.777 92.5708 200.978 97.3981 200.978 102.3C200.978 107.202 199.777 112.029 197.48 116.36C195.182 120.69 191.859 124.391 187.8 127.14C186.918 127.718 186.23 128.548 185.824 129.521C185.417 130.494 185.312 131.566 185.52 132.6C186.405 136.935 186.321 141.411 185.272 145.709C184.224 150.007 182.239 154.02 179.458 157.461C176.676 160.901 173.169 163.684 169.186 165.61C165.203 167.536 160.844 168.557 156.42 168.6C154.405 168.599 152.395 168.398 150.42 168H149.34C148.459 167.998 147.59 168.216 146.815 168.635C146.039 169.054 145.381 169.661 144.9 170.4C142.081 174.361 138.342 177.577 134.004 179.772C129.667 181.967 124.861 183.074 120 183Z" fill="#FFD400"/>
<path d="M120 24.0002C124.428 23.9679 128.793 25.05 132.694 27.147C136.594 29.244 139.904 32.2885 142.32 36.0002C143.073 37.1419 144.098 38.0793 145.302 38.7284C146.506 39.3776 147.852 39.7183 149.22 39.7202H150.84C152.617 39.3624 154.426 39.1816 156.24 39.1802C160.198 39.2001 164.103 40.096 167.674 41.8036C171.245 43.5112 174.394 45.9881 176.895 49.0566C179.396 52.1251 181.186 55.7092 182.138 59.5515C183.09 63.3938 183.179 67.3992 182.4 71.2802C182.109 72.8791 182.296 74.5281 182.936 76.0218C183.576 77.5155 184.642 78.7878 186 79.6802C189.675 82.129 192.689 85.4477 194.774 89.3414C196.859 93.2352 197.949 97.5835 197.949 102C197.949 106.417 196.859 110.765 194.774 114.659C192.689 118.553 189.675 121.871 186 124.32C184.62 125.233 183.545 126.538 182.914 128.068C182.284 129.597 182.125 131.28 182.46 132.9C183.239 136.781 183.15 140.787 182.198 144.629C181.246 148.471 179.456 152.055 176.955 155.124C174.454 158.192 171.305 160.669 167.734 162.377C164.163 164.084 160.258 164.98 156.3 165C154.486 164.998 152.678 164.818 150.9 164.46H149.28C147.912 164.462 146.566 164.803 145.362 165.452C144.158 166.101 143.133 167.038 142.38 168.18C139.931 171.856 136.612 174.87 132.718 176.954C128.825 179.039 124.476 180.13 120.06 180.13C115.643 180.13 111.295 179.039 107.401 176.954C103.507 174.87 100.189 171.856 97.7397 168.18C96.9864 167.038 95.9619 166.101 94.7578 165.452C93.5537 164.803 92.2076 164.462 90.8397 164.46H89.2197C87.4419 164.818 85.6331 164.999 83.8197 165C79.8613 164.98 75.9564 164.084 72.3852 162.377C68.814 160.669 65.6651 158.192 63.1644 155.124C60.6637 152.055 58.8732 148.471 57.9215 144.629C56.9698 140.787 56.8804 136.781 57.6597 132.9C57.9824 131.268 57.8058 129.576 57.1529 128.046C56.5 126.515 55.4012 125.217 53.9997 124.32C50.3241 121.871 47.3101 118.553 45.2255 114.659C43.1409 110.765 42.0501 106.417 42.0501 102C42.0501 97.5835 43.1409 93.2352 45.2255 89.3414C47.3101 85.4477 50.3241 82.129 53.9997 79.6802C55.3794 78.7673 56.454 77.4621 57.0849 75.9328C57.7159 74.4035 57.8743 72.7203 57.5397 71.1002C56.7604 67.2192 56.8498 63.2138 57.8015 59.3715C58.7532 55.5292 60.5437 51.9451 63.0444 48.8766C65.5451 45.8081 68.694 43.3312 72.2652 41.6236C75.8364 39.916 79.7413 39.0201 83.6997 39.0002C85.5131 39.0016 87.3219 39.1824 89.0997 39.5402H90.7197C92.0815 39.5681 93.4291 39.2596 94.6432 38.6421C95.8573 38.0246 96.9003 37.1172 97.6797 36.0002C100.095 32.2885 103.405 29.244 107.306 27.147C111.206 25.05 115.571 23.9679 120 24.0002ZM120 18.0002C114.592 17.9829 109.264 19.3121 104.498 21.868C99.7324 24.4238 95.6776 28.1258 92.6997 32.6402C92.4861 32.9529 92.1998 33.209 91.8654 33.3867C91.5309 33.5644 91.1584 33.6582 90.7797 33.6602H89.9997C87.8271 33.2215 85.6162 33.0004 83.3997 33.0002C78.6077 33.072 73.8896 34.1925 69.5769 36.2829C65.2643 38.3732 61.4618 41.3827 58.4366 45.0998C55.4115 48.8169 53.2371 53.1514 52.0663 57.7988C50.8955 62.4461 50.7567 67.2935 51.6597 72.0002C51.7531 72.4503 51.7119 72.9179 51.5412 73.3448C51.3704 73.7716 51.0778 74.1387 50.6997 74.4002C46.1948 77.3955 42.5002 81.458 39.9446 86.2262C37.389 90.9944 36.0518 96.3203 36.0518 101.73C36.0518 107.14 37.389 112.466 39.9446 117.234C42.5002 122.002 46.1948 126.065 50.6997 129.06C51.0778 129.322 51.3704 129.689 51.5412 130.116C51.7119 130.542 51.7531 131.01 51.6597 131.46C50.7024 136.213 50.81 141.119 51.9748 145.825C53.1395 150.531 55.3325 154.921 58.396 158.679C61.4595 162.437 65.3176 165.469 69.6927 167.558C74.0679 169.647 78.8515 170.74 83.6997 170.76C85.9161 170.76 88.127 170.538 90.2997 170.1H90.7797C91.1584 170.102 91.5309 170.196 91.8654 170.374C92.1998 170.551 92.4861 170.807 92.6997 171.12C95.6951 175.625 99.7576 179.32 104.526 181.875C109.294 184.431 114.62 185.768 120.03 185.768C125.44 185.768 130.766 184.431 135.534 181.875C140.302 179.32 144.364 175.625 147.36 171.12C147.573 170.807 147.86 170.551 148.194 170.374C148.528 170.196 148.901 170.102 149.28 170.1H150C152.172 170.539 154.383 170.76 156.6 170.76C161.367 170.682 166.061 169.566 170.353 167.49C174.646 165.414 178.434 162.427 181.455 158.738C184.476 155.049 186.657 150.746 187.846 146.128C189.035 141.511 189.203 136.69 188.34 132C188.246 131.55 188.288 131.082 188.458 130.656C188.629 130.229 188.922 129.862 189.3 129.6C193.805 126.605 197.499 122.542 200.055 117.774C202.61 113.006 203.948 107.68 203.948 102.27C203.948 96.8603 202.61 91.5344 200.055 86.7662C197.499 81.998 193.805 77.9355 189.3 74.9402C188.922 74.6787 188.629 74.3116 188.458 73.8848C188.288 73.4579 188.246 72.9903 188.34 72.5402C189.337 67.7704 189.261 62.8382 188.115 58.1018C186.969 53.3654 184.782 48.9436 181.714 45.1575C178.646 41.3714 174.774 38.316 170.378 36.2132C165.982 34.1103 161.173 33.0127 156.3 33.0002C154.083 33.0008 151.872 33.2219 149.7 33.6602H149.22C148.841 33.6582 148.468 33.5644 148.134 33.3867C147.8 33.209 147.513 32.9529 147.3 32.6402C144.322 28.1258 140.267 24.4238 135.501 21.868C130.735 19.3121 125.408 17.9829 120 18.0002Z" fill="#B07350"/>
<path d="M120 159C108.726 159 97.7061 155.657 88.3325 149.394C78.9589 143.131 71.6531 134.228 67.3389 123.813C63.0247 113.398 61.8959 101.937 64.0953 90.8799C66.2946 79.823 71.7233 69.6665 79.6949 61.6949C87.6665 53.7233 97.823 48.2946 108.88 46.0953C119.937 43.8959 131.398 45.0247 141.813 49.3389C152.228 53.6531 161.131 60.9589 167.394 70.3325C173.657 79.7061 177 90.7265 177 102C176.984 117.112 170.974 131.601 160.288 142.288C149.601 152.974 135.112 158.984 120 159Z" fill="#FFD400"/>
<path d="M120 48C130.68 48 141.121 51.167 150.001 57.1006C158.881 63.0342 165.802 71.4679 169.89 81.3351C173.977 91.2023 175.046 102.06 172.962 112.535C170.879 123.01 165.736 132.632 158.184 140.184C150.632 147.736 141.01 152.879 130.535 154.962C120.06 157.046 109.202 155.977 99.3351 151.889C89.4679 147.802 81.0343 140.881 75.1007 132.001C69.1671 123.121 66 112.68 66 102C66 87.6783 71.6893 73.9432 81.8163 63.8162C91.9432 53.6893 105.678 48 120 48ZM120 42C108.133 42 96.5328 45.5189 86.6658 52.1118C76.7989 58.7047 69.1085 68.0754 64.5673 79.039C60.026 90.0026 58.8378 102.067 61.1529 113.705C63.468 125.344 69.1825 136.035 77.5736 144.426C85.9648 152.818 96.6558 158.532 108.295 160.847C119.933 163.162 131.997 161.974 142.961 157.433C153.925 152.892 163.295 145.201 169.888 135.334C176.481 125.467 180 113.867 180 102C180 86.087 173.679 70.8258 162.426 59.5736C151.174 48.3214 135.913 42 120 42Z" fill="#B07350"/>
</svg>
